# xmcd CD database file
#
# Track frame offsets:
#	150
#	27442
#	48912
#	72420
#	88064
#	110970
#	124929
#	138398
#	153368
#	167951
#	204305
#	226718
#	261217
#	274258
#
# Disc length: 4052 seconds
#
# Revision: 2
# Processed by: cddbd v1.5.2PL0 Copyright (c) Steve Scherf et al.
# Submitted via: CDex 1.51
#
DISCID=cc0fd20e
DTITLE=M S Subbalakshmi and M L Vasanthakumari - Dasara Padagalu
DYEAR=2005
DGENRE=Karnatic Vocal
TTITLE0=Jagadodharana
TTITLE1=Dasana Madiko
TTITLE2=Narayana
TTITLE3=Naneke Badavanu
TTITLE4=Yadu Vamsha
TTITLE5=Bhagyada Lakshmi Baramma
TTITLE6=Neene Anaatha Bandhu
TTITLE7=Srikantha Yenagishthu
TTITLE8=Venkatachala Nilayam
TTITLE9=Chandra Chooda Shiva Shankara
TTITLE10=Jaya Jaya JanakiKantha
TTITLE11=Dayamado Ranga
TTITLE12=Hari Smarana
TTITLE13=Uga Bhoga and Baro Krishnayya
EXTD=YEAR: 2005
EXTT0=
EXTT1=
EXTT2=
EXTT3=
EXTT4=
EXTT5=
EXTT6=
EXTT7=
EXTT8=
EXTT9=
EXTT10=
EXTT11=
EXTT12=
EXTT13=
PLAYORDER=
